<svg xmlns="http://www.w3.org/2000/svg" viewBox="0 0 546 140" width="2184" height="560" xmlns:c2pa="http://c2pa.org/manifest"><metadata><c2pa:manifest>AAAWgmp1bWIAAAAeanVtZGMycGEAEQAQgAAAqgA4m3EDYzJwYQAAABZcanVtYgAAAEdqdW1kYzJtYQARABCAAACqADibcQN1cm46YzJwYTo5ZGQyNWM0OS0yNmYzLTQ1MmEtYjM1YS01ZjA3ODZjMWY3MDgAAAADl2p1bWIAAAApanVtZGMyYXMAEQAQgAAAqgA4m3EDYzJwYS5hc3NlcnRpb25zAAAAALxqdW1iAAAARGp1bWRjYm9yABEAEIAAAKoAOJtxE2MycGEuaW5ncmVkaWVudC52MwAAAAAYYzJzaJjG4FDG0h+6mtYwEAEGNMMAAABwY2JvcqNpZGM6Zm9ybWF0bWltYWdlL3N2Zyt4bWxqaW5zdGFuY2VJRHgseG1wOmlpZDo3YmM0NWZiNi01NjNhLTQ2ZWQtYTZlYy1lN2RmODNkYTg5ZjVscmVsYXRpb25zaGlwaHBhcmVudE9mAAAB4mp1bWIAAABBanVtZGNib3IAEQAQgAAAqgA4m3ETYzJwYS5hY3Rpb25zLnYyAAAAABhjMnNo6zO7lRvzyhsgVsU8qAeX8gAAAZljYm9yomdhY3Rpb25zgqJmYWN0aW9ua2MycGEub3BlbmVkanBhcmFtZXRlcnOha2luZ3JlZGllbnRzgaJjdXJseC1zZWxmI2p1bWJmPWMycGEuYXNzZXJ0aW9ucy9jMnBhLmluZ3JlZGllbnQudjNkaGFzaFggtyQAXtkRjZ3iTO+KlsM3oGDsxgZ0ZLQcgCqHlCN8lBakZmFjdGlvbngdY29tLmFudGhyb3BpYy5jbGF1ZGUucHJvdmlkZWRqcGFyYW1ldGVyc6F4H2NvbS5hbnRocm9waWMub3JpZ2luLWNvbmZpZGVuY2VndW5rbm93bmtkZXNjcmlwdGlvbnhmQ2xhdWRlIHByb3ZpZGVkIHRoaXMgZmlsZSBhdCB0aGUgcmVxdWVzdCBvZiBhIHVzZXIgYW5kIG1heSBoYXZlIGNyZWF0ZWQgb3IgbW9kaWZpZWQgdGhlIGZpbGUgY29udGVudHMubXNvZnR3YXJlQWdlbnShZG5hbWVmQ2xhdWRlcmFsbEFjdGlvbnNJbmNsdWRlZPUAAADIanVtYgAAAEBqdW1kY2JvcgARABCAAACqADibcRNjMnBhLmhhc2guZGF0YQAAAAAYYzJzaCjEHMGbuztbjgwgpELfAeAAAACAY2JvcqVjYWxnZnNoYTI1NmNwYWRNAAAAAAAAAAAAAAAAAGRoYXNoWCAhOOkIyFVJkw5JNXXVt/w758RNb/uSMXm2JnLmh9h+42RuYW1lbmp1bWJmIG1hbmlmZXN0amV4Y2x1c2lvbnOBomVzdGFydBiXZmxlbmd0aBkeBAAAAj5qdW1iAAAAJ2p1bWRjMmNsABEAEIAAAKoAOJtxA2MycGEuY2xhaW0udjIAAAACD2Nib3KlY2FsZ2ZzaGEyNTZpc2lnbmF0dXJleE1zZWxmI2p1bWJmPS9jMnBhL3VybjpjMnBhOjlkZDI1YzQ5LTI2ZjMtNDUyYS1iMzVhLTVmMDc4NmMxZjcwOC9jMnBhLnNpZ25hdHVyZWppbnN0YW5jZUlEeCx4bXA6aWlkOmY5MDQ1ZjEyLTI1MzctNGFmNi1hNGFjLWQ1OGY4OGEwOWVmMHJjcmVhdGVkX2Fzc2VydGlvbnODomN1cmx4LXNlbGYjanVtYmY9YzJwYS5hc3NlcnRpb25zL2MycGEuaW5ncmVkaWVudC52M2RoYXNoWCC3JABe2RGNneJM74qWwzegYOzGBnRktByAKoeUI3yUFqJjdXJseCpzZWxmI2p1bWJmPWMycGEuYXNzZXJ0aW9ucy9jMnBhLmFjdGlvbnMudjJkaGFzaFggMTBoJvGts6XVsDrthKju7o1H6+4Au/lArFZqoxYKWGyiY3VybHgpc2VsZiNqdW1iZj1jMnBhLmFzc2VydGlvbnMvYzJwYS5oYXNoLmRhdGFkaGFzaFggrfxu8gL1WQnuof1Z7KGpQMMqy9PkW3U74jE8F4/FuZN0Y2xhaW1fZ2VuZXJhdG9yX2luZm+jZG5hbWVvQW50aHJvcGljIEZpbGVzZ3ZlcnNpb25lMS4wLjBrc3BlY1ZlcnNpb25lMi40LjAAABA4anVtYgAAAChqdW1kYzJjcwARABCAAACqADibcQNjMnBhLnNpZ25hdHVyZQAAABAIY2JvctKEWQISogEmGCFZAgowggIGMIIBjaADAgECAhRA5aAK7sI50L64g/oGQgU9Z1UTADAKBggqhkjOPQQDAzBJMRcwFQYDVQQKEw5BbnRocm9waWMsIFBCQzEuMCwGA1UEAxMlQW50aHJvcGljIENvbnRlbnQgQ3JlZGVudGlhbHMgUm9vdCBDQTAeFw0yNjA4MDcxODQzNTZaFw0yODA4MDYxOTQzNTZaMEQxFzAVBgNVBAoTDkFudGhyb3BpYywgUEJDMSkwJwYDVQQDEyBBbnRocm9waWMgQ2xhdWRlIENvbnRlbnQgU2lnbmluZzBZMBMGByqGSM49AgEGCCqGSM49AwEHA0IABJh6CmvLUBgFFNU0vUKlOVtE6djd17L5SuwX0LemFisBM3dkd/3cyjxFA3Qo5S46fX0/ihY0VZ7mfb9KF703t5OjWDBWMA4GA1UdDwEB/wQEAwIHgDAVBgNVHSUEDjAMBgorBgEEAYPoXgIBMAwGA1UdEwEB/wQCMAAwHwYDVR0jBBgwFoAUzlHiBIFOZFsj+OPEz5o+nMHXXMIwCgYIKoZIzj0EAwMDZwAwZAIwMXMdFJ4BetLLVY7ORuE9noqbbAZOZn/aArXyTwFAZfKrPzxF2vPoJNf1+UCdg1XGAjBwX1zd9WGqYkqmL5SFqw1QySjr1zJfpJM9+1rdDwSPLMOPOjKuiXjoU/pUUeG9RwmhY3BhZFkNngAAAAAAAAAAAAAAAAAAAAAAAAAAAAAAAAAAAAAAAAAAAAAAAAAAAAAAAAAAAAAAAAAAAAAAAAAAAAAAAAAAAAAAAAAAAAAAAAAAAAAAAAAAAAAAAAAAAAAAAAAAAAAAAAAAAAAAAAAAAAAAAAAAAAAAAAAAAAAAAAAAAAAAAAAAAAAAAAAAAAAAAAAAAAAAAAAAAAAAAAAAAAAAAAAAAAAAAAAAAAAAAAAAAAAAAAAAAAAAAAAAAAAAAAAAAAAAAAAAAAAAAAAAAAAAAAAAAAAAAAAAAAAAAAAAAAAAAAAAAAAAAAAAAAAAAAAAAAAAAAAAAAAAAAAAAAAAAAAAAAAAAAAAAAAAAAAAAAAAAAAAAAAAAAAAAAAAAAAAAAAAAAAAAAAAAAAAAAAAAAAAAAAAAAAAAAAAAAAAAAAAAAAAAAAAAAAAAAAAAAAAAAAAAAAAAAAAAAAAAAAAAAAAAAAAAAAAAAAAAAAAAAAAAAAAAAAAAAAAAAAAAAAAAAAAAAAAAAAAAAAAAAAAAAAAAAAAAAAAAAAAAAAAAAAAAAAAAAAAAAAAAAAAAAAAAAAAAAAAAAAAAAAAAAAAAAAAAAAAAAAAAAAAAAAAAAAAAAAAAAAAAAAAAAAAAAAAAAAAAAAAAAAAAAAAAAAAAAAAAAAAAAAAAAAAAAAAAAAAAAAAAAAAAAAAAAAAAAAAAAAAAAAAAAAAAAAAAAAAAAAAAAAAAAAAAAAAAAAAAAAAAAAAAAAAAAAAAAAAAAAAAAAAAAAAAAAAAAAAAAAAAAAAAAAAAAAAAAAAAAAAAAAAAAAAAAAAAAAAAAAAAAAAAAAAAAAAAAAAAAAAAAAAAAAAAAAAAAAAAAAAAAAAAAAAAAAAAAAAAAAAAAAAAAAAAAAAAAAAAAAAAAAAAAAAAAAAAAAAAAAAAAAAAAAAAAAAAAAAAAAAAAAAAAAAAAAAAAAAAAAAAAAAAAAAAAAAAAAAAAAAAAAAAAAAAAAAAAAAAAAAAAAAAAAAAAAAAAAAAAAAAAAAAAAAAAAAAAAAAAAAAAAAAAAAAAAAAAAAAAAAAAAAAAAAAAAAAAAAAAAAAAAAAAAAAAAAAAAAAAAAAAAAAAAAAAAAAAAAAAAAAAAAAAAAAAAAAAAAAAAAAAAAAAAAAAAAAAAAAAAAAAAAAAAAAAAAAAAAAAAAAAAAAAAAAAAAAAAAAAAAAAAAAAAAAAAAAAAAAAAAAAAAAAAAAAAAAAAAAAAAAAAAAAAAAAAAAAAAAAAAAAAAAAAAAAAAAAAAAAAAAAAAAAAAAAAAAAAAAAAAAAAAAAAAAAAAAAAAAAAAAAAAAAAAAAAAAAAAAAAAAAAAAAAAAAAAAAAAAAAAAAAAAAAAAAAAAAAAAAAAAAAAAAAAAAAAAAAAAAAAAAAAAAAAAAAAAAAAAAAAAAAAAAAAAAAAAAAAAAAAAAAAAAAAAAAAAAAAAAAAAAAAAAAAAAAAAAAAAAAAAAAAAAAAAAAAAAAAAAAAAAAAAAAAAAAAAAAAAAAAAAAAAAAAAAAAAAAAAAAAAAAAAAAAAAAAAAAAAAAAAAAAAAAAAAAAAAAAAAAAAAAAAAAAAAAAAAAAAAAAAAAAAAAAAAAAAAAAAAAAAAAAAAAAAAAAAAAAAAAAAAAAAAAAAAAAAAAAAAAAAAAAAAAAAAAAAAAAAAAAAAAAAAAAAAAAAAAAAAAAAAAAAAAAAAAAAAAAAAAAAAAAAAAAAAAAAAAAAAAAAAAAAAAAAAAAAAAAAAAAAAAAAAAAAAAAAAAAAAAAAAAAAAAAAAAAAAAAAAAAAAAAAAAAAAAAAAAAAAAAAAAAAAAAAAAAAAAAAAAAAAAAAAAAAAAAAAAAAAAAAAAAAAAAAAAAAAAAAAAAAAAAAAAAAAAAAAAAAAAAAAAAAAAAAAAAAAAAAAAAAAAAAAAAAAAAAAAAAAAAAAAAAAAAAAAAAAAAAAAAAAAAAAAAAAAAAAAAAAAAAAAAAAAAAAAAAAAAAAAAAAAAAAAAAAAAAAAAAAAAAAAAAAAAAAAAAAAAAAAAAAAAAAAAAAAAAAAAAAAAAAAAAAAAAAAAAAAAAAAAAAAAAAAAAAAAAAAAAAAAAAAAAAAAAAAAAAAAAAAAAAAAAAAAAAAAAAAAAAAAAAAAAAAAAAAAAAAAAAAAAAAAAAAAAAAAAAAAAAAAAAAAAAAAAAAAAAAAAAAAAAAAAAAAAAAAAAAAAAAAAAAAAAAAAAAAAAAAAAAAAAAAAAAAAAAAAAAAAAAAAAAAAAAAAAAAAAAAAAAAAAAAAAAAAAAAAAAAAAAAAAAAAAAAAAAAAAAAAAAAAAAAAAAAAAAAAAAAAAAAAAAAAAAAAAAAAAAAAAAAAAAAAAAAAAAAAAAAAAAAAAAAAAAAAAAAAAAAAAAAAAAAAAAAAAAAAAAAAAAAAAAAAAAAAAAAAAAAAAAAAAAAAAAAAAAAAAAAAAAAAAAAAAAAAAAAAAAAAAAAAAAAAAAAAAAAAAAAAAAAAAAAAAAAAAAAAAAAAAAAAAAAAAAAAAAAAAAAAAAAAAAAAAAAAAAAAAAAAAAAAAAAAAAAAAAAAAAAAAAAAAAAAAAAAAAAAAAAAAAAAAAAAAAAAAAAAAAAAAAAAAAAAAAAAAAAAAAAAAAAAAAAAAAAAAAAAAAAAAAAAAAAAAAAAAAAAAAAAAAAAAAAAAAAAAAAAAAAAAAAAAAAAAAAAAAAAAAAAAAAAAAAAAAAAAAAAAAAAAAAAAAAAAAAAAAAAAAAAAAAAAAAAAAAAAAAAAAAAAAAAAAAAAAAAAAAAAAAAAAAAAAAAAAAAAAAAAAAAAAAAAAAAAAAAAAAAAAAAAAAAAAAAAAAAAAAAAAAAAAAAAAAAAAAAAAAAAAAAAAAAAAAAAAAAAAAAAAAAAAAAAAAAAAAAAAAAAAAAAAAAAAAAAAAAAAAAAAAAAAAAAAAAAAAAAAAAAAAAAAAAAAAAAAAAAAAAAAAAAAAAAAAAAAAAAAAAAAAAAAAAAAAAAAAAAAAAAAAAAAAAAAAAAAAAAAAAAAAAAAAAAAAAAAAAAAAAAAAAAAAAAAAAAAAAAAAAAAAAAAAAAAAAAAAAAAAAAAAAAAAAAAAAAAAAAAAAAAAAAAAAAAAAAAAAAAAAAAAAAAAAAAAAAAAAAAAAAAAAAAAAAAAAAAAAAAAAAAAAAAAAAAAAAAAAAAAAAAAAAAAAAAAAAAAAAAAAAAAAAAAAAAAAAAAAAAAAAAAAAAAAAAAAAAAAAAAAAAAAAAAAAAAAAAAAAAAAAAAAAAAAAAAAAAAAAAAAAAAAAAAAAAAAAAAAAAAAAAAAAAAAAAAAAAAAAAAAAAAAAAAAAAAAAAAAAAAAAAAAAAAAAAAAAAAAAAAAAAAAAAAAAAAAAAAAAAAAAAAAAAAAAAAAAAAAAAAAAAAAAAAAAAAAAAAAAAAAAAAAAAAAAAAAAAAAAAAAAAAAAAAAAAAAAAAAAAAAAAAAAAAAAAAAAAAAAAAAAAAAAAAAAAAAAAAAAAAAAAAAAAAAAAAAAAAAAAAAAAAAAAAAAAAAAAAAAAAAAAAAAAAAAAAAAAAAAAAAAAAAAAAAAAAAAAAAAAAAAAAAAAAAAAAAAAAAAAAAAAAAAAAAAAAAAAAAAAAAAAAAAAAAAAAAAAAAAAAAAAAAAAAAAAAAAAAAAAAAAAAAAAAAAAAAAAAAAAAAAAAAAAAAAAAAAAAAAAAAAAAAAAAAAAAAAAAAAAAAAAAAAAAAAAAAAAAAAAAAAAAAAAAAAAAAAAAAAAAAAAAAAAAAAAAAAAAAAAAAAAAAAAAAAAAAAAAAAAAAAAAAAAAAAAAAAAAAAAAAAAAAAAAAAAAAAAAAAAAAAAAAAAAAAAAAAAAAAAAAAAAAAAAAAAAAAAAAAAAAAAAAAAAAAAAAAAAAAAAAAAAAAAAAAAAAAAAAAAAAAAAAAAAAAAAAAAAAAAAAAAAAAAAAAAAAAAAAAAAAAAAAAAAAAAAAAAAAAAAAAAAAAAAAAAAAAAAAAAAAAAAAAAAAAAAAAAAAAAAAAAAAAAAAAAAAAAAAAAAAAAAAAAAAAAAAAAAAAAAAAAAAAAAAAAAAAAAAAAAAAAAAAAAAAAAAAAAAAAAAAAAAAAAAAAAAAAAAAAAAAAAAAAAAAAAAAAAAAAAAAAAAAAAAAAAAAAAAAAAAAAAAAAAAAAAAAAAAAAAAAAAAAAAAAAAAAAAAAAAAAAAAAAAAAAAAAAAAAAAAAAAAAAAAAAAAAAAAAAAAAAAAAAAAAAAAAAAAAAAAAAAAAAAAAAAAAAAAAAAAAAAAAAAAAAAAAAAAAAAAAAAAAAAAAAAAAAAAAAAAAAAAAAAAAAAAAAAAAAAAAAAAAAAAAAAAAAAAAAAAAAAAAAAAAAAAAAAAAAAAAAAAAAAAAAAAAAAAAAAAAAAAAAAAAAAAAAAAAAAAAAAAAAAAAAAAAAAAAAAAAAAAAAAAAAAAAAAAAAAAAAAAAAAAAAAAAAAAAAAAAAAAAAAAAAAAAAAAAAAAAAAAAAAAAAAAAAAAAAAAAAAAAAAAAAAAAAAAAAAAAAAAAAAAAAAAAAAAAAAAAAAAAAAAAAAAAAAAAAAAAAAAAAAAAAAAAAAAAAAAAAAAAAAAAAAAAAAAAAAAAAAAAAAAAAAAPZYQFAgPyIcMP6GTp40zr8A0L0sc+JKS0PYM0ADgFqz697XMu4uhMYtI47MeOuRTo0llXRrzMkbCkIV9rMOrqmNDXs=</c2pa:manifest></metadata><g transform="translate(12 10)"><defs><linearGradient id="bgml" x1="0" y1="0" x2="1" y2="1"><stop offset="0" stop-color="#14213D"/><stop offset="0.55" stop-color="#25348A"/><stop offset="1" stop-color="#3D4FD1"/></linearGradient><radialGradient id="glowml" cx="0.5" cy="0.5" r="0.5"><stop offset="0" stop-color="#F5B83D" stop-opacity="0.75"/><stop offset="1" stop-color="#F5B83D" stop-opacity="0"/></radialGradient><linearGradient id="shineml" x1="0" y1="0" x2="0" y2="1"><stop offset="0" stop-color="#FFFFFF" stop-opacity="0.18"/><stop offset="0.5" stop-color="#FFFFFF" stop-opacity="0"/></linearGradient><linearGradient id="ambml" x1="0" y1="0" x2="0" y2="1"><stop offset="0" stop-color="#FFD978"/><stop offset="1" stop-color="#F0A21E"/></linearGradient></defs><rect width="120" height="120" rx="27" fill="url(#bgml)"/><rect width="120" height="120" rx="27" fill="url(#shineml)"/><path d="M32.5 79.5 L32.5 49.5 L51.5 67.5 L70.5 49.5 L70.5 79.5" fill="none" stroke="#000" stroke-opacity="0.18" stroke-width="11" stroke-linecap="round" stroke-linejoin="round"/><path d="M31.0 77.0 L31.0 47.0 L50.0 65.0 L69.0 47.0 L69.0 77.0" fill="none" stroke="#FFFFFF" stroke-width="11" stroke-linecap="round" stroke-linejoin="round"/><circle cx="88" cy="93.6" r="17" fill="#000" fill-opacity="0.2"/><circle cx="88" cy="92" r="17" fill="#FFFFFF"/><circle cx="87" cy="91" r="7" fill="none" stroke="#25348A" stroke-width="2.9"/><path d="M91.9 95.9 L96.5 100.5" stroke="#25348A" stroke-width="3.7" stroke-linecap="round"/><path d="M100 73 Q108 56 100 43" fill="none" stroke="#F5B83D" stroke-width="4.5" stroke-linecap="round"/><path d="M105.1 47.1 L100.0 41.0 L97.3 48.5" fill="none" stroke="#F5B83D" stroke-width="3.6" stroke-linecap="round" stroke-linejoin="round"/><circle cx="90" cy="24" r="20" fill="url(#glowml)"/><g transform="translate(90.00 26.00) scale(0.5789)"><path d="M0 -24 V-30 M-17 -17 L-21 -21 M17 -17 L21 -21 M-23 -1 H-29 M23 -1 H29" stroke="#F5B83D" stroke-width="3.6" stroke-linecap="round"/><path d="M0 -15 C9 -15 15 -8 15 0 C15 6 11 9 9 11 C8 12 7.5 13.5 7.5 15 H-7.5 C-7.5 13.5 -8 12 -9 11 C-11 9 -15 6 -15 0 C-15 -8 -9 -15 0 -15 Z" fill="url(#ambml)"/><rect x="-7" y="17" width="14" height="4" rx="2" fill="#F5B83D"/><rect x="-5" y="22.5" width="10" height="3.5" rx="1.75" fill="#F5B83D"/></g></g><path d="M159.8427414550781 88.61228857421875Q157.194 88.61228857421875 155.78255712890626 87.15591784667969Q154.3711142578125 85.69954711914062 154.3711142578125 83.0508056640625V46.4191943359375Q154.3711142578125 43.74659716796875 155.89070141601565 42.302154296875Q157.41028857421875 40.85771142578125 160.14331860351564 40.85771142578125Q162.4676271972656 40.85771142578125 163.82499792480468 41.758649291992185Q165.18236865234374 42.659587158203124 166.31152294921876 44.725462890624996L180.4641643066406 70.20944702148438H178.18358715820312L192.336228515625 44.725462890624996Q193.4653828125 42.659587158203124 194.83189782714845 41.758649291992185Q196.19841284179688 40.85771142578125 198.4805771484375 40.85771142578125Q201.12931860351563 40.85771142578125 202.56183361816406 42.302154296875Q203.9943486328125 43.74659716796875 203.9943486328125 46.4191943359375V83.0508056640625Q203.9943486328125 85.69954711914062 202.59483361816405 87.15591784667969Q201.19531860351563 88.61228857421875 198.52272143554688 88.61228857421875Q195.87397998046876 88.61228857421875 194.462537109375 87.15591784667969Q193.05109423828125 85.69954711914062 193.05109423828125 83.0508056640625V60.331643066406244H194.41880566406252L183.761771484375 78.82441284179687Q182.89105004882813 80.28356713867187 181.84896789550783 81.00121643066406Q180.8068857421875 81.71886572265625 179.13144287109375 81.71886572265625Q177.45600000000002 81.71886572265625 176.39006213378906 80.98928857421875Q175.32412426757813 80.25971142578125 174.47725854492188 78.82441284179687L163.77251293945312 60.30778735351562H165.31436865234375V83.0508056640625Q165.31436865234375 85.69954711914062 163.91485363769533 87.15591784667969Q162.5153386230469 88.61228857421875 159.8427414550781 88.61228857421875Z" fill="#3D55E0"/><path d="M229.46717431640624 88.74428857421876Q223.5255871582031 88.74428857421876 219.20736071777344 86.65614428710938Q214.88913427734374 84.568 212.57555712890624 80.74278356933593Q210.26197998046874 76.91756713867187 210.26197998046874 71.7274228515625Q210.26197998046874 66.7114228515625 212.4674128417969 62.90727856445312Q214.672845703125 59.10313427734375 218.5465671386719 56.93706213378906Q222.42028857421874 54.770989990234376 227.359154296875 54.770989990234376Q231.00187573242187 54.770989990234376 233.95159716796874 55.95620642089844Q236.90131860351562 57.141422851562496 239.01689575195311 59.33771142578125Q241.1324729003906 61.534 242.23976147460937 64.64236071777344Q243.34705004882812 67.75072143554688 243.34705004882812 71.59701000976563Q243.34705004882812 72.91144287109375 242.60633862304687 73.53844287109375Q241.8656271972656 74.16544287109375 240.30548291015626 74.16544287109375H220.08880151367188V68.61270141601562H234.7153828125L233.70152709960936 69.43412426757813Q233.70152709960936 67.03028857421874 233.02124853515625 65.49002001953124Q232.34096997070313 63.94975146484375 231.0583406982422 63.17683361816407Q229.77571142578125 62.40391577148438 227.89987573242186 62.40391577148438Q225.84432861328125 62.40391577148438 224.33984362792967 63.35376147460938Q222.83535864257811 64.30360717773438 222.04415222167967 66.16194787597657Q221.25294580078125 68.02028857421875 221.25294580078125 70.79070141601562V71.33698999023437Q221.25294580078125 76.032537109375 223.33035864257812 78.05230065917968Q225.407771484375 80.07206420898437 229.76775146484374 80.07206420898437Q231.2308857421875 80.07206420898437 233.12302001953122 79.72735278320312Q235.01515429687498 79.38264135742187 236.71843286132813 78.70593994140626Q238.4415871582031 78.04037280273437 239.70830859375 78.45545495605468Q240.97503002929687 78.870537109375 241.66524645996094 79.88876354980468Q242.355462890625 80.90698999023438 242.42424645996095 82.22221643066406Q242.49303002929688 83.53744287109375 241.80838073730467 84.73816430664061Q241.1237314453125 85.9388857421875 239.5985771484375 86.62274145507813Q237.33072143554688 87.69544287109375 234.72809216308593 88.21986572265625Q232.125462890625 88.74428857421876 229.46717431640624 88.74428857421876Z" fill="#3D55E0"/><path d="M254.41517431640625 88.61228857421875Q251.48414428710936 88.61228857421875 249.93155712890623 87.0807735595703Q248.3789699707031 85.54925854492187 248.3789699707031 82.66037280273437V60.831050048828125Q248.3789699707031 57.94216430664062 249.87748498535154 56.4225771484375Q251.37599999999998 54.902989990234374 254.13288574218748 54.902989990234374Q256.889771484375 54.902989990234374 258.3672143554687 56.4225771484375Q259.8446572265625 57.94216430664062 259.8446572265625 60.831050048828125V63.513999999999996H259.1846572265625Q259.8136472167969 59.554 262.56179150390625 57.23406213378907Q265.3099357910156 54.914124267578124 269.4186372070312 54.770989990234376Q271.31036865234375 54.723278564453125 272.2618015136719 55.759Q273.213234375 56.794721435546876 273.26094580078126 59.522184326171875Q273.3086572265625 61.930781494140625 272.312296508789 63.31200793457032Q271.3159357910156 64.693234375 268.5646171875 64.97552294921874L267.02832861328125 65.10752294921875Q263.5502043457031 65.419234375 261.94671936035155 67.03464721679688Q260.343234375 68.65006005859375 260.343234375 71.8220400390625V82.66037280273437Q260.343234375 85.54925854492187 258.82364721679687 87.0807735595703Q257.30406005859373 88.61228857421875 254.41517431640625 88.61228857421875Z" fill="#3D55E0"/><path d="M293.6247414550781 88.74428857421876Q288.16344287109376 88.74428857421876 284.0853607177735 86.68636071777344Q280.00727856445315 84.62843286132812 277.7716292724609 80.77936071777344Q275.53597998046877 76.93028857421875 275.53597998046877 71.69800000000001Q275.53597998046877 67.76185571289062 276.7963406982422 64.62963928222656Q278.05670141601564 61.4974228515625 280.4454228515625 59.28920642089844Q282.8341442871094 57.08098999023437 286.16793786621093 55.92598999023437Q289.5017314453125 54.770989990234376 293.6247414550781 54.770989990234376Q295.54987573242187 54.770989990234376 297.64836071777347 55.154268554687505Q299.746845703125 55.537547119140626 301.990845703125 56.50210424804688Q303.5525771484375 57.1199599609375 304.1986593017578 58.33896997070312Q304.8447414550781 59.557979980468744 304.75210217285155 60.9364228515625Q304.659462890625 62.31486572265625 303.94817431640627 63.42930859375Q303.2368857421875 64.54375146484375 302.03894787597653 64.9616171875Q300.8410100097656 65.37948291015624 299.29756713867187 64.65905004882812Q298.22486572265626 64.13820434570312 297.065092163086 63.87778149414062Q295.90531860351564 63.617358642578125 294.8564729003906 63.617358642578125Q293.09991577148435 63.617358642578125 291.74492578125 64.16285363769532Q290.3899357910156 64.7083486328125 289.46672937011715 65.74248291015624Q288.54352294921875 66.7766171875 288.05488366699217 68.26917431640625Q287.56624438476564 69.7617314453125 287.56624438476564 71.72185571289063Q287.56624438476564 75.55224853515625 289.46672937011715 77.72508422851563Q291.3672143554687 79.897919921875 294.8564729003906 79.897919921875Q295.90531860351564 79.897919921875 297.0531643066406 79.6704970703125Q298.20101000976564 79.44307421875 299.29756713867187 78.88008422851563Q300.8410100097656 78.15965136718751 302.0270200195313 78.58944494628906Q303.2130300292969 79.01923852539062 303.9123907470703 80.13368139648438Q304.61175146484373 81.24812426757812 304.6805350341797 82.62656713867187Q304.74931860351563 84.00501000976563 304.09130859375 85.22402001953125Q303.43329858398437 86.44303002929688 301.8954228515625 87.03703002929687Q299.67527856445315 87.9777314453125 297.6125771484375 88.36101000976564Q295.54987573242187 88.74428857421876 293.6247414550781 88.74428857421876Z" fill="#3D55E0"/><path d="M314.82903002929686 88.61228857421875Q312.0061442871094 88.61228857421875 310.48655712890627 87.0807735595703Q308.96696997070313 85.54925854492187 308.96696997070313 82.66037280273437V46.785771484375Q308.96696997070313 43.8968857421875 310.48655712890627 42.37729858398437Q312.0061442871094 40.85771142578125 314.82903002929686 40.85771142578125Q317.65191577148437 40.85771142578125 319.1834307861328 42.37729858398437Q320.71494580078127 43.8968857421875 320.71494580078127 46.785771484375V61.182537109375H319.7066572265625Q321.28509008789064 58.105979980468746 324.22765722656254 56.438484985351565Q327.1702243652344 54.770989990234376 330.8956472167969 54.770989990234376Q334.7896472167969 54.770989990234376 337.2976472167969 56.28620642089844Q339.8056472167969 57.8014228515625 341.05964721679686 60.907Q342.3136472167969 64.0125771484375 342.3136472167969 68.79558715820312V82.66037280273437Q342.3136472167969 85.54925854492187 340.7940600585938 87.0807735595703Q339.27447290039066 88.61228857421875 336.45158715820315 88.61228857421875Q333.62870141601564 88.61228857421875 332.0971864013672 87.0807735595703Q330.56567138671875 85.54925854492187 330.56567138671875 82.66037280273437V69.27587573242187Q330.56567138671875 66.3146171875 329.5470421142578 65.04113220214845Q328.52841284179686 63.767647216796874 326.5277314453125 63.767647216796874Q323.9091943359375 63.767647216796874 322.3120700683594 65.45462719726562Q320.71494580078127 67.14160717773437 320.71494580078127 69.97643286132812V82.66037280273437Q320.71494580078127 88.61228857421875 314.82903002929686 88.61228857421875Z" fill="#3D55E0"/><path d="M355.941462890625 88.0Q353.0104328613281 88.0 351.4037735595703 86.38141284179687Q349.7971142578125 84.76282568359375 349.7971142578125 81.83179565429687V47.54278149414062Q349.7971142578125 44.54575146484375 351.3707735595703 42.97209216308593Q352.9444328613281 41.398432861328125 355.875462890625 41.398432861328125Q358.8064929199219 41.398432861328125 360.359080078125 42.97209216308593Q361.9116672363281 44.54575146484375 361.9116672363281 47.54278149414062V77.89804418945312H378.0594228515625Q380.55787573242185 77.89804418945312 381.89417431640624 79.20134277343749Q383.2304729003906 80.50464135742187 383.2304729003906 82.93709423828125Q383.2304729003906 85.36954711914062 381.89417431640624 86.68477355957032Q380.55787573242185 88.0 378.0594228515625 88.0Z" fill="#F0A21E"/><path d="M393.43503002929685 88.58843286132813Q390.6121442871094 88.58843286132813 389.09255712890626 86.936845703125Q387.5729699707031 85.28525854492187 387.5729699707031 82.20393994140625V61.31133862304687Q387.5729699707031 58.20616430664062 389.09255712890626 56.56650500488281Q390.6121442871094 54.926845703125 393.43503002929685 54.926845703125Q396.25791577148436 54.926845703125 397.7894307861328 56.56650500488281Q399.32094580078126 58.20616430664062 399.32094580078126 61.31133862304687V82.20393994140625Q399.32094580078126 85.28525854492187 397.8224307861328 86.936845703125Q396.3239157714844 88.58843286132813 393.43503002929685 88.58843286132813Z" fill="#F0A21E"/><g transform="translate(393.45 38.53) scale(0.4689)"><path d="M0 -24 V-30 M-17 -17 L-21 -21 M17 -17 L21 -21 M-23 -1 H-29 M23 -1 H29" stroke="#F0A21E" stroke-width="3.6" stroke-linecap="round"/><path d="M0 -15 C9 -15 15 -8 15 0 C15 6 11 9 9 11 C8 12 7.5 13.5 7.5 15 H-7.5 C-7.5 13.5 -8 12 -9 11 C-11 9 -15 6 -15 0 C-15 -8 -9 -15 0 -15 Z" fill="#F0A21E"/><rect x="-7" y="17" width="14" height="4" rx="2" fill="#F0A21E"/><rect x="-5" y="22.5" width="10" height="3.5" rx="1.75" fill="#F0A21E"/></g><path d="M422.2205771484375 100.62428857421875Q418.6144328613281 100.62428857421875 415.4500100097656 100.11179357910157Q412.2855871582031 99.59929858398438 409.9588857421875 98.6768857421875Q408.0727214355469 98.0168857421875 407.28549499511723 96.77680358886718Q406.4982685546875 95.53672143554688 406.5368356933594 94.15827856445313Q406.5754028320313 92.77983569335937 407.28669140625004 91.65346496582032Q407.99797998046876 90.52709423828125 409.19591784667966 90.010228515625Q410.3938557128906 89.49336279296875 411.8052985839844 90.06350708007812Q414.7092985839844 91.2204970703125 417.0845050048828 91.58628063964844Q419.4597114257813 91.95206420898438 421.09698999023436 91.95206420898438Q425.1818356933594 91.95206420898438 427.1821142578125 90.2706513671875Q429.1823928222656 88.58923852539063 429.1823928222656 84.99740283203126V80.86960717773438H429.73424853515627Q428.70210424804685 83.64558715820313 425.67246496582027 85.40572143554687Q422.64282568359374 87.16585571289062 419.0621242675781 87.16585571289062Q414.7482685546875 87.16585571289062 411.4931964111328 85.15285571289061Q408.23812426757814 83.13985571289062 406.43505212402346 79.48878356933594Q404.63197998046877 75.83771142578125 404.63197998046877 70.97756713867187Q404.63197998046877 67.3054228515625 405.67605212402344 64.32627856445312Q406.7201242675781 61.34713427734375 408.6221964111328 59.21406213378906Q410.5242685546875 57.08098999023437 413.1761964111328 55.92598999023437Q415.8281242675781 54.770989990234376 419.0621242675781 54.770989990234376Q422.77482568359375 54.770989990234376 425.71739282226565 56.51005212402343Q428.6599599609375 58.249114257812494 429.6261042480469 61.00123852539062L429.00824853515627 63.704845703125V60.831050048828125Q429.00824853515627 57.94216430664062 430.53976354980466 56.4225771484375Q432.0712785644531 54.902989990234374 434.82816430664064 54.902989990234374Q437.6510500488281 54.902989990234374 439.1284929199219 56.4225771484375Q440.6059357910156 57.94216430664062 440.6059357910156 60.831050048828125V83.67024853515625Q440.6059357910156 92.1142685546875 435.8579157714844 96.36927856445313Q431.1098957519531 100.62428857421875 422.2205771484375 100.62428857421875ZM422.7390300292969 78.49363134765625Q424.6808657226562 78.49363134765625 426.0863507080078 77.60064135742186Q427.49183569335935 76.7076513671875 428.26196997070315 75.02345495605468Q429.0321042480469 73.33925854492188 429.0321042480469 70.97756713867187Q429.0321042480469 67.3928857421875 427.3149078369141 65.41805004882812Q425.59771142578126 63.44321435546875 422.7390300292969 63.44321435546875Q420.8393386230469 63.44321435546875 419.41278149414063 64.33620434570312Q417.98622436523436 65.2291943359375 417.2160900878906 66.901462890625Q416.4459558105469 68.5737314453125 416.4459558105469 70.97756713867187Q416.4459558105469 74.56224853515624 418.1631522216797 76.52793994140625Q419.8803486328125 78.49363134765625 422.7390300292969 78.49363134765625Z" fill="#F0A21E"/><path d="M453.2970300292968 88.61228857421875Q450.47414428710937 88.61228857421875 448.95455712890623 87.0807735595703Q447.4349699707031 85.54925854492187 447.4349699707031 82.66037280273437V46.785771484375Q447.4349699707031 43.8968857421875 448.95455712890623 42.37729858398437Q450.47414428710937 40.85771142578125 453.2970300292968 40.85771142578125Q456.11991577148433 40.85771142578125 457.6514307861328 42.37729858398437Q459.1829458007812 43.8968857421875 459.1829458007812 46.785771484375V61.182537109375H458.1746572265625Q459.7530900878906 58.105979980468746 462.6956572265625 56.438484985351565Q465.63822436523435 54.770989990234376 469.36364721679683 54.770989990234376Q473.25764721679684 54.770989990234376 475.7656472167969 56.28620642089844Q478.27364721679686 57.8014228515625 479.5276472167968 60.907Q480.78164721679684 64.0125771484375 480.78164721679684 68.79558715820312V82.66037280273437Q480.78164721679684 85.54925854492187 479.26206005859376 87.0807735595703Q477.7424729003906 88.61228857421875 474.9195871582031 88.61228857421875Q472.0967014160156 88.61228857421875 470.56518640136716 87.0807735595703Q469.0336713867187 85.54925854492187 469.0336713867187 82.66037280273437V69.27587573242187Q469.0336713867187 66.3146171875 468.01504211425777 65.04113220214845Q466.9964128417968 63.767647216796874 464.99573144531246 63.767647216796874Q462.3771943359375 63.767647216796874 460.78007006835935 65.45462719726562Q459.1829458007812 67.14160717773437 459.1829458007812 69.97643286132812V82.66037280273437Q459.1829458007812 88.61228857421875 453.2970300292968 88.61228857421875Z" fill="#F0A21E"/><path d="M504.4907614746093 88.74428857421876Q499.56859716796873 88.74428857421876 496.33937072753906 87.208Q493.11014428710934 85.67171142578125 491.53449499511714 82.61384570312501Q489.95884570312495 79.55597998046875 489.95884570312495 74.93439282226562V64.16364721679687H487.7490300292968Q485.61715429687496 64.16364721679687 484.4430721435547 63.04363720703125Q483.26898999023433 61.923627197265624 483.26898999023433 59.839462890625Q483.26898999023433 57.73144287109375 484.4430721435547 56.62336071777344Q485.61715429687496 55.515278564453126 487.7490300292968 55.515278564453126H489.95884570312495V51.405771484374995Q489.95884570312495 48.5168857421875 491.4903607177734 46.997298583984374Q493.02187573242185 45.47771142578125 495.84476147460936 45.47771142578125Q498.6676472167968 45.47771142578125 500.18723437499995 46.997298583984374Q501.7068215332031 48.5168857421875 501.7068215332031 51.405771484374995V55.515278564453126H507.10133862304684Q509.27535864257806 55.515278564453126 510.4283686523437 56.62336071777344Q511.58137866210933 57.73144287109375 511.58137866210933 59.839462890625Q511.58137866210933 61.923627197265624 510.4283686523437 63.04363720703125Q509.27535864257806 64.16364721679687 507.10133862304684 64.16364721679687H501.7068215332031V74.55668139648438Q501.7068215332031 76.96608422851563 502.86102795410153 78.12864135742188Q504.015234375 79.29119848632813 506.5272143554687 79.29119848632813Q507.4384929199218 79.29119848632813 508.29649291992183 79.09319848632813Q509.15449291992184 78.89519848632813 509.89878149414056 78.8713427734375Q510.9436472167968 78.8053427734375 511.61915222167966 79.51384777832031Q512.2946572265624 80.22235278320312 512.2946572265624 82.6548056640625Q512.2946572265624 84.60696997070312 511.69708007812494 85.96712426757813Q511.09950292968745 87.32727856445312 509.5560600585937 87.934Q508.613771484375 88.28228857421875 507.0381221923828 88.51328857421876Q505.4624729003906 88.74428857421876 504.4907614746093 88.74428857421876Z" fill="#F0A21E"/></svg>